<svg xmlns="http://www.w3.org/2000/svg" xmlns:xlink="http://www.w3.org/1999/xlink" id="Layer_2" data-name="Layer 2" viewBox="0 0 89.94 36.94"><defs><style>.cls-1{fill:url(#linear-gradient)}.cls-2{fill:#d11508}.cls-3{fill:url(#linear-gradient-2)}</style><linearGradient id="linear-gradient" x1="40.88" x2="91.57" y1="5.05" y2="27.19" gradientUnits="userSpaceOnUse"><stop offset=".28" stop-color="#d8d9da"/><stop offset=".48" stop-color="#8f8984"/><stop offset=".67" stop-color="#767272"/><stop offset=".83" stop-color="#cbcacb"/><stop offset=".98" stop-color="#a9a7a7"/></linearGradient><linearGradient id="linear-gradient-2" x1="20.32" x2="60.5" y1="9.36" y2="22.14" xlink:href="#linear-gradient"/></defs><g id="Layer_1-2" data-name="Layer 1"><g><path d="M71.63,.01c-8.81-.01-16.11,6.22-17.86,14.59-.06,.34-.13,.69-.18,1.03-.14,.92-.21,1.87-.21,2.83-.01,4.26,1.34,8.14,3.66,11.23,.84,1.14,1.81,2.16,2.9,3.06,3.13,2.62,7.17,4.17,11.63,4.17,10.3,.01,18.36-7.99,18.38-18.25C89.96,8.25,81.92,.03,71.63,.01Zm8.27,25.69c-1.99,2.75-4.78,4.09-7.47,4.15-5.82,.03-10.1-3.57-11.03-8.72-.69-3.73-.09-7.22,2.34-10.2,2.56-3.15,5.97-4.37,9.94-3.57,4.04,.8,6.62,3.41,7.84,7.26,1.24,3.92,.82,7.7-1.63,11.08Z" class="cls-1"/><path d="M35.76,24.31L24.7,.01h-7.88L0,36.92H9.81l2.86-6.24h10.99l-3.59-7.57h-3.89l4.59-10.07h.06l2.69,6.33h.02l4.24,9.06c1.26,2.5,3.15,4.49,5.7,6.01,2.35,1.41,5.01,2.22,7.98,2.42l-5.71-12.55Z" class="cls-2"/><path d="M57.99,0H31.16V8.21h12.53l-7.6,10.64c-.14,.23-.14,.41,0,.53,.14,.11,.33,.12,.6,.02,1.58-.57,3.37-.86,5.35-.86,4.24,0,6.36,1.69,6.36,5.09s-1.98,5.07-5.94,5.07c-1.67,0-3.09-.43-4.26-1.28-1-.73-1.8-1.77-2.43-3.11l-7.97,4.13c1.26,2.49,3.15,4.49,5.7,6.01,2.78,1.66,5.99,2.49,9.62,2.49,4.6,0,8.28-1.18,11.04-3.56,.63-.55,1.19-1.14,1.67-1.76-2.96-3.64-4.6-8.27-4.59-13.16,0-1.03,.09-2.09,.24-3.14,.1-.62,.21-1.22,.35-1.82-.85-.36-1.77-.64-2.77-.84L58.15,.44c.23-.29,.17-.44-.16-.44Z" class="cls-3"/></g></g></svg>