<svg xmlns="http://www.w3.org/2000/svg" id="Layer_2" data-name="Layer 2" viewBox="0 0 39.81 22.95"><defs><style>.cls-1{fill:#fff;opacity:.35}</style></defs><g id="Layer_1-2" data-name="Layer 1"><g><path d="M16.08,16.77c-.14,.66-.15,1.34-.03,2,.13,.67,.39,1.3,.76,1.86,.05,.08,.1,.15,.16,.22L6.38,8.38c-.88-1.04-1.3-2.38-1.18-3.73,.12-1.35,.78-2.59,1.83-3.46C8.08,.32,9.44-.1,10.8,.02c1.37,.12,2.63,.77,3.51,1.8l3.95,4.64-2.18,10.31Z" class="cls-1"/><path d="M25.69,20.27c.13-.23,.24-.48,.33-.72-.09,.25-.2,.49-.33,.72Z" class="cls-1"/><path d="M26.18,18.97c-.05,.2-.09,.39-.16,.58,.07-.19,.12-.38,.16-.58Z" class="cls-1"/><path d="M26.21,18.86s-.02,.07-.03,.11c.04-.16,.09-.32,.11-.49l-.08,.38Z" class="cls-1"/><path d="M18.84,22.39c.24,.12,.5,.22,.75,.3-.26-.08-.51-.18-.75-.3Z" class="cls-1"/><path d="M17.95,21.84c.23,.18,.47,.33,.73,.46-.15-.08-.31-.15-.45-.24-.1-.07-.18-.15-.28-.22Z" class="cls-1"/><path d="M18.68,22.3c.05,.03,.1,.06,.16,.09-.05-.03-.1-.06-.16-.09Z" class="cls-1"/><path d="M19.59,22.69c.07,.02,.14,.05,.21,.07-.07-.02-.14-.04-.21-.07Z" class="cls-1"/><path d="M19.8,22.75c.3,.08,.6,.14,.91,.17-.21,0-.42-.04-.62-.08-.1-.02-.19-.06-.29-.09Z" class="cls-1"/><path d="M16.97,20.85c.08,.11,.17,.2,.26,.3,0,0-.02-.02-.03-.03l-.23-.27Z" class="cls-1"/><path d="M17.22,21.15c.21,.24,.43,.46,.68,.65-.25-.2-.47-.41-.68-.65Z" class="cls-1"/><path d="M17.9,21.8s.03,.03,.05,.04c-.02-.01-.03-.03-.05-.04Z" class="cls-1"/><path d="M20.72,22.92c.6,.05,1.2,0,1.77-.15-.12,.04-.25,.07-.37,.09-.46,.09-.94,.11-1.4,.06Z" class="cls-1"/><path d="M22.49,22.77c.29-.08,.58-.18,.85-.31-.27,.14-.56,.24-.85,.31Z" class="cls-1"/><path d="M23.74,22.25c.13-.07,.25-.15,.37-.23-.04,.04-.08,.06-.12,.09-.08,.05-.16,.11-.25,.14Z" class="cls-1"/><path d="M28.9,6.17l-2.18,10.27-.43,2.04-.08,.38c-.1,.5-.27,.97-.52,1.41-.08,.15-.16,.29-.26,.43s-.2,.28-.31,.4c-.19,.23-.4,.44-.63,.63-.1,.09-.21,.17-.31,.24-.02,.02-.04,.04-.07,.05-.12,.08-.24,.16-.37,.23-.13,.08-.26,.15-.4,.21-.27,.13-.56,.23-.85,.31-.57,.14-1.17,.2-1.77,.15-1.37-.12-2.64-.76-3.52-1.8l-.23-.27c-.06-.07-.11-.14-.16-.22-.37-.56-.63-1.19-.76-1.86-.12-.66-.11-1.34,.03-2l2.18-10.31,.5-2.38c.07-.31,.16-.6,.29-.89,.06-.15,.13-.3,.21-.45,.03-.05,.06-.11,.1-.16,.05-.11,.12-.22,.2-.33,.11-.17,.23-.32,.37-.47,.08-.1,.17-.2,.27-.29,.12-.12,.25-.23,.38-.34,.12-.1,.25-.2,.39-.29,.32-.21,.66-.39,1.02-.51,.92-.34,1.91-.42,2.89-.22,.66,.13,1.29,.39,1.86,.77,.56,.38,1.04,.86,1.42,1.42,.37,.56,.63,1.19,.75,1.85,.13,.66,.13,1.34,0,2Z" class="cls-1"/><path d="M20.52,1.19s.04-.03,.06-.04c-.13,.11-.26,.22-.38,.34,.1-.11,.21-.21,.32-.3Z" class="cls-1"/><path d="M39.79,18.27c-.12,1.35-.78,2.59-1.83,3.46-1.04,.87-2.4,1.29-3.76,1.18-1.36-.12-2.62-.76-3.5-1.79l-3.98-4.68,2.18-10.27c.14-.66,.14-1.34,0-2-.12-.66-.38-1.29-.75-1.85-.37-.55-.85-1.02-1.39-1.4,.38,.26,.74,.55,1.04,.9l10.8,12.72c.88,1.04,1.31,2.38,1.18,3.73Z" class="cls-1"/><path d="M25.86,.43c.29,.12,.56,.27,.83,.44-.26-.17-.54-.32-.83-.44Z" class="cls-1"/><path d="M24.3,.02c.53,.05,1.03,.19,1.51,.39-.3-.12-.61-.22-.93-.28-.98-.2-1.97-.12-2.89,.22,.73-.29,1.52-.4,2.31-.33Z" class="cls-1"/><path d="M25.81,.41s.04,.02,.06,.02c-.02,0-.04-.02-.06-.02Z" class="cls-1"/><path d="M26.74,.9s.02,.02,.03,.02c-.02-.02-.05-.03-.07-.05,.01,0,.03,.01,.05,.02Z" class="cls-1"/><path d="M10.33,17.42c.09,1.04-.15,2.09-.69,2.99-.53,.9-1.33,1.62-2.3,2.06-.96,.44-2.04,.58-3.08,.39-1.04-.18-2-.68-2.75-1.42-.75-.74-1.25-1.69-1.44-2.72-.19-1.03-.05-2.09,.4-3.04,.45-.95,1.17-1.74,2.09-2.27,.92-.53,1.97-.76,3.03-.68,1.22,.1,2.37,.62,3.24,1.48,.87,.86,1.4,1.99,1.5,3.2Z" class="cls-1"/></g></g></svg>